<?xml version="1.0" encoding="utf-8"?>
<!-- Generator: Adobe Illustrator 16.0.3, SVG Export Plug-In . SVG Version: 6.00 Build 0)  -->
<!DOCTYPE svg PUBLIC "-//W3C//DTD SVG 1.1//EN" "http://www.w3.org/Graphics/SVG/1.1/DTD/svg11.dtd">
<svg version="1.1" xmlns="http://www.w3.org/2000/svg" xmlns:xlink="http://www.w3.org/1999/xlink" x="0px" y="0px"
	 width="595.28px" height="146px" viewBox="0 0 595.28 146" enable-background="new 0 0 595.28 146" xml:space="preserve">
<g id="Layer_1" display="none">
	<g id="Layer_1_1_" display="inline">
		
			<image overflow="visible" width="629" height="177" xlink:href="D8FE2C32.jpg"  transform="matrix(1.0495 0 0 1.0675 -39.5 111.5571)">
		</image>
	</g>
</g>
<g id="genome">
	<path fill="#EFE2AD" stroke="#000000" stroke-width="1.3407" d="M588.528,77.676c0,4.965-2.238,8.988-5,8.988H19.529
		c-2.761,0-5-4.023-5-8.988v-5.993c0-4.964,2.239-8.987,5-8.987h563.999c2.762,0,5,4.023,5,8.987V77.676z"/>
	<path fill="#FFCA06" stroke="#000000" stroke-width="1.3407" d="M19.196,86.664c-2.761,0-5-4.023-5-8.988v-5.993
		c0-4.964,2.239-8.987,5-8.987l20.083,0.075l-0.042,23.967L19.196,86.664z"/>
	<path fill="#FFCA06" stroke="#000000" stroke-width="1.3407" d="M584.28,62.769c2.76,0,5,4.023,5,8.988v5.993
		c0,4.964-2.24,8.987-5,8.987l-20.084-0.075l0.043-23.967L584.28,62.769z"/>
	<g>
		<path d="M571.361,69.3v8.084h-1.045V69.3H571.361z"/>
		<path d="M574.721,70.188h-2.459V69.3h5.984v0.888h-2.471v7.196h-1.055V70.188z"/>
		<path d="M579.148,69.408c0.529-0.108,1.283-0.168,2.004-0.168c1.115,0,1.834,0.204,2.338,0.66
			c0.408,0.359,0.637,0.911,0.637,1.535c0,1.067-0.672,1.774-1.523,2.063v0.036c0.623,0.216,0.996,0.791,1.188,1.631
			c0.264,1.127,0.455,1.907,0.623,2.219h-1.078c-0.133-0.228-0.313-0.924-0.541-1.931c-0.24-1.115-0.672-1.535-1.619-1.571h-0.982
			v3.502h-1.045V69.408z M580.193,73.09h1.066c1.115,0,1.824-0.611,1.824-1.535c0-1.043-0.756-1.499-1.859-1.511
			c-0.504,0-0.863,0.048-1.031,0.096V73.09z"/>
	</g>
	<g>
		<path d="M22.152,69.3v8.084h-1.044V69.3H22.152z"/>
		<path d="M25.512,70.188h-2.458V69.3h5.984v0.888h-2.471v7.196h-1.056V70.188z"/>
		<path d="M29.94,69.408c0.528-0.108,1.283-0.168,2.003-0.168c1.115,0,1.835,0.204,2.339,0.66c0.408,0.359,0.636,0.911,0.636,1.535
			c0,1.067-0.672,1.774-1.523,2.063v0.036c0.624,0.216,0.996,0.791,1.188,1.631c0.264,1.127,0.456,1.907,0.624,2.219h-1.079
			c-0.133-0.228-0.313-0.924-0.54-1.931c-0.24-1.115-0.672-1.535-1.619-1.571h-0.983v3.502H29.94V69.408z M30.984,73.09h1.067
			c1.115,0,1.823-0.611,1.823-1.535c0-1.043-0.756-1.499-1.859-1.511c-0.504,0-0.863,0.048-1.031,0.096V73.09z"/>
	</g>
	<g>
		<path d="M9.151,124.584v8.084H8.108v-8.084H9.151z"/>
		<path d="M12.511,125.472h-2.459v-0.888h5.985v0.888h-2.471v7.196h-1.055V125.472z"/>
		<path d="M16.94,124.692c0.528-0.108,1.283-0.168,2.003-0.168c1.115,0,1.835,0.204,2.338,0.66c0.408,0.359,0.636,0.911,0.636,1.535
			c0,1.067-0.671,1.774-1.523,2.063v0.036c0.624,0.216,0.995,0.791,1.187,1.631c0.264,1.127,0.456,1.907,0.624,2.219h-1.08
			c-0.132-0.228-0.312-0.924-0.54-1.931c-0.24-1.115-0.672-1.535-1.619-1.571h-0.983v3.502H16.94V124.692z M17.983,128.374h1.067
			c1.115,0,1.823-0.611,1.823-1.535c0-1.043-0.755-1.499-1.859-1.511c-0.504,0-0.863,0.048-1.031,0.096V128.374z"/>
		<path d="M22.964,128.626v-0.72h6.189v0.72H22.964z M22.964,130.977v-0.72h6.189v0.72H22.964z"/>
		<path d="M34.135,124.584v8.084h-1.043v-8.084H34.135z"/>
		<path d="M36.044,128.435c0-0.6-0.012-1.092-0.048-1.571h0.936l0.06,0.959h0.024c0.288-0.552,0.959-1.091,1.919-1.091
			c0.803,0,2.051,0.479,2.051,2.471v3.466H39.93v-3.346c0-0.936-0.348-1.716-1.343-1.716c-0.695,0-1.235,0.492-1.415,1.08
			c-0.048,0.132-0.072,0.312-0.072,0.491v3.49h-1.056V128.435z"/>
		<path d="M42.955,126.863l1.14,3.262c0.192,0.528,0.348,1.008,0.468,1.487h0.036c0.132-0.479,0.3-0.959,0.492-1.487l1.127-3.262
			h1.104l-2.279,5.805h-1.007l-2.207-5.805H42.955z"/>
		<path d="M48.788,129.957c0.024,1.428,0.935,2.016,1.991,2.016c0.755,0,1.211-0.132,1.607-0.3l0.18,0.755
			c-0.372,0.168-1.007,0.36-1.931,0.36c-1.787,0-2.854-1.176-2.854-2.927s1.032-3.13,2.723-3.13c1.895,0,2.399,1.667,2.399,2.734
			c0,0.216-0.024,0.384-0.036,0.491H48.788z M51.882,129.202c0.012-0.672-0.276-1.715-1.463-1.715c-1.067,0-1.535,0.983-1.619,1.715
			H51.882z"/>
		<path d="M54.211,128.674c0-0.684-0.012-1.271-0.048-1.811h0.923l0.036,1.14h0.048c0.264-0.78,0.899-1.271,1.607-1.271
			c0.12,0,0.204,0.012,0.3,0.036v0.995c-0.108-0.024-0.216-0.036-0.36-0.036c-0.744,0-1.271,0.563-1.416,1.355
			c-0.024,0.144-0.048,0.312-0.048,0.491v3.095h-1.043V128.674z"/>
		<path d="M59.694,125.196v1.667h1.511v0.804h-1.511v3.13c0,0.72,0.204,1.128,0.792,1.128c0.276,0,0.479-0.036,0.612-0.072
			l0.048,0.791c-0.204,0.084-0.528,0.145-0.936,0.145c-0.492,0-0.888-0.156-1.14-0.444c-0.3-0.312-0.408-0.827-0.408-1.511v-3.166
			h-0.899v-0.804h0.899v-1.392L59.694,125.196z"/>
		<path d="M62.911,129.957c0.024,1.428,0.936,2.016,1.991,2.016c0.755,0,1.211-0.132,1.607-0.3l0.18,0.755
			c-0.372,0.168-1.007,0.36-1.931,0.36c-1.787,0-2.854-1.176-2.854-2.927s1.032-3.13,2.723-3.13c1.895,0,2.399,1.667,2.399,2.734
			c0,0.216-0.024,0.384-0.036,0.491H62.911z M66.005,129.202c0.012-0.672-0.276-1.715-1.463-1.715c-1.067,0-1.535,0.983-1.619,1.715
			H66.005z"/>
		<path d="M73.348,124.152v7.017c0,0.516,0.012,1.104,0.048,1.499h-0.947l-0.048-1.008h-0.024c-0.324,0.648-1.032,1.14-1.979,1.14
			c-1.403,0-2.483-1.188-2.483-2.95c-0.012-1.931,1.188-3.118,2.603-3.118c0.888,0,1.487,0.42,1.751,0.888h0.024v-3.467H73.348z
			 M72.293,129.226c0-0.132-0.012-0.312-0.048-0.443c-0.156-0.672-0.731-1.224-1.523-1.224c-1.091,0-1.739,0.96-1.739,2.243
			c0,1.175,0.576,2.146,1.715,2.146c0.708,0,1.355-0.468,1.547-1.259c0.036-0.145,0.048-0.288,0.048-0.456V129.226z"/>
		<path d="M78.918,125.196v1.667h1.511v0.804h-1.511v3.13c0,0.72,0.204,1.128,0.792,1.128c0.276,0,0.479-0.036,0.611-0.072
			l0.048,0.791c-0.204,0.084-0.528,0.145-0.936,0.145c-0.492,0-0.888-0.156-1.14-0.444c-0.3-0.312-0.408-0.827-0.408-1.511v-3.166
			h-0.899v-0.804h0.899v-1.392L78.918,125.196z"/>
		<path d="M82.135,129.957c0.024,1.428,0.935,2.016,1.991,2.016c0.755,0,1.211-0.132,1.607-0.3l0.18,0.755
			c-0.372,0.168-1.007,0.36-1.931,0.36c-1.787,0-2.854-1.176-2.854-2.927s1.032-3.13,2.723-3.13c1.895,0,2.399,1.667,2.399,2.734
			c0,0.216-0.024,0.384-0.036,0.491H82.135z M85.229,129.202c0.012-0.672-0.276-1.715-1.463-1.715c-1.067,0-1.535,0.983-1.619,1.715
			H85.229z"/>
		<path d="M87.559,128.674c0-0.684-0.012-1.271-0.048-1.811h0.923l0.036,1.14h0.048c0.264-0.78,0.899-1.271,1.607-1.271
			c0.12,0,0.204,0.012,0.3,0.036v0.995c-0.108-0.024-0.216-0.036-0.36-0.036c-0.744,0-1.271,0.563-1.416,1.355
			c-0.024,0.144-0.048,0.312-0.048,0.491v3.095h-1.043V128.674z"/>
		<path d="M91.531,128.435c0-0.6-0.012-1.092-0.048-1.571h0.923l0.048,0.936h0.036c0.324-0.552,0.864-1.067,1.823-1.067
			c0.792,0,1.391,0.479,1.643,1.163h0.024c0.18-0.324,0.408-0.575,0.647-0.756c0.348-0.264,0.731-0.407,1.283-0.407
			c0.768,0,1.907,0.504,1.907,2.519v3.418h-1.032v-3.286c0-1.115-0.408-1.787-1.259-1.787c-0.6,0-1.067,0.443-1.247,0.96
			c-0.048,0.144-0.084,0.335-0.084,0.527v3.586h-1.031v-3.479c0-0.923-0.408-1.595-1.211-1.595c-0.66,0-1.14,0.527-1.308,1.056
			c-0.06,0.155-0.084,0.336-0.084,0.516v3.502h-1.031V128.435z"/>
		<path d="M102.714,125.232c0.012,0.359-0.252,0.647-0.671,0.647c-0.372,0-0.636-0.288-0.636-0.647c0-0.372,0.276-0.66,0.66-0.66
			C102.462,124.572,102.714,124.86,102.714,125.232z M101.539,132.668v-5.805h1.056v5.805H101.539z"/>
		<path d="M104.347,128.435c0-0.6-0.012-1.092-0.048-1.571h0.936l0.06,0.959h0.024c0.288-0.552,0.959-1.091,1.919-1.091
			c0.803,0,2.051,0.479,2.051,2.471v3.466h-1.056v-3.346c0-0.936-0.348-1.716-1.343-1.716c-0.695,0-1.235,0.492-1.415,1.08
			c-0.048,0.132-0.072,0.312-0.072,0.491v3.49h-1.056V128.435z"/>
		<path d="M114.221,132.668l-0.084-0.731h-0.036c-0.324,0.456-0.947,0.863-1.775,0.863c-1.175,0-1.775-0.827-1.775-1.667
			c0-1.403,1.247-2.171,3.49-2.159v-0.119c0-0.48-0.132-1.344-1.319-1.344c-0.54,0-1.104,0.168-1.511,0.432l-0.24-0.695
			c0.48-0.312,1.175-0.516,1.907-0.516c1.775,0,2.207,1.211,2.207,2.374v2.171c0,0.504,0.024,0.996,0.096,1.392H114.221z
			 M114.064,129.706c-1.151-0.024-2.458,0.18-2.458,1.307c0,0.684,0.456,1.008,0.996,1.008c0.755,0,1.235-0.479,1.403-0.972
			c0.036-0.108,0.06-0.228,0.06-0.336V129.706z"/>
		<path d="M116.791,124.152h1.056v8.516h-1.056V124.152z"/>
		<path d="M122.167,128.674c0-0.684-0.012-1.271-0.048-1.811h0.923l0.036,1.14h0.048c0.264-0.78,0.899-1.271,1.607-1.271
			c0.12,0,0.204,0.012,0.3,0.036v0.995c-0.108-0.024-0.216-0.036-0.36-0.036c-0.744,0-1.271,0.563-1.416,1.355
			c-0.024,0.144-0.048,0.312-0.048,0.491v3.095h-1.043V128.674z"/>
		<path d="M126.558,129.957c0.024,1.428,0.935,2.016,1.991,2.016c0.755,0,1.211-0.132,1.607-0.3l0.18,0.755
			c-0.372,0.168-1.007,0.36-1.931,0.36c-1.787,0-2.854-1.176-2.854-2.927s1.032-3.13,2.723-3.13c1.895,0,2.399,1.667,2.399,2.734
			c0,0.216-0.024,0.384-0.036,0.491H126.558z M129.652,129.202c0.012-0.672-0.276-1.715-1.463-1.715
			c-1.067,0-1.535,0.983-1.619,1.715H129.652z"/>
		<path d="M131.982,128.758c0-0.743-0.024-1.343-0.048-1.895h0.947l0.048,0.995h0.024c0.432-0.707,1.115-1.127,2.063-1.127
			c1.403,0,2.459,1.188,2.459,2.95c0,2.087-1.271,3.118-2.639,3.118c-0.768,0-1.439-0.336-1.787-0.911h-0.024v3.154h-1.043V128.758z
			 M133.025,130.306c0,0.155,0.024,0.3,0.048,0.432c0.192,0.731,0.828,1.235,1.583,1.235c1.116,0,1.763-0.912,1.763-2.243
			c0-1.163-0.612-2.159-1.727-2.159c-0.72,0-1.391,0.517-1.595,1.308c-0.036,0.132-0.072,0.288-0.072,0.432V130.306z"/>
		<path d="M139.397,129.957c0.024,1.428,0.936,2.016,1.991,2.016c0.755,0,1.211-0.132,1.607-0.3l0.18,0.755
			c-0.372,0.168-1.007,0.36-1.931,0.36c-1.787,0-2.854-1.176-2.854-2.927s1.032-3.13,2.723-3.13c1.895,0,2.399,1.667,2.399,2.734
			c0,0.216-0.024,0.384-0.036,0.491H139.397z M142.492,129.202c0.012-0.672-0.276-1.715-1.463-1.715
			c-1.067,0-1.535,0.983-1.619,1.715H142.492z"/>
		<path d="M148.036,132.668l-0.084-0.731h-0.036c-0.324,0.456-0.947,0.863-1.775,0.863c-1.175,0-1.775-0.827-1.775-1.667
			c0-1.403,1.247-2.171,3.49-2.159v-0.119c0-0.48-0.132-1.344-1.319-1.344c-0.54,0-1.103,0.168-1.511,0.432l-0.24-0.695
			c0.48-0.312,1.176-0.516,1.907-0.516c1.775,0,2.207,1.211,2.207,2.374v2.171c0,0.504,0.024,0.996,0.096,1.392H148.036z
			 M147.88,129.706c-1.151-0.024-2.459,0.18-2.459,1.307c0,0.684,0.456,1.008,0.996,1.008c0.755,0,1.235-0.479,1.403-0.972
			c0.036-0.108,0.06-0.228,0.06-0.336V129.706z"/>
		<path d="M151.829,125.196v1.667h1.511v0.804h-1.511v3.13c0,0.72,0.204,1.128,0.792,1.128c0.276,0,0.479-0.036,0.611-0.072
			l0.048,0.791c-0.204,0.084-0.528,0.145-0.936,0.145c-0.492,0-0.888-0.156-1.14-0.444c-0.3-0.312-0.408-0.827-0.408-1.511v-3.166
			h-0.899v-0.804h0.899v-1.392L151.829,125.196z"/>
		<path d="M154.385,131.589c0.312,0.203,0.864,0.42,1.392,0.42c0.768,0,1.127-0.384,1.127-0.864c0-0.504-0.3-0.779-1.079-1.067
			c-1.043-0.371-1.535-0.947-1.535-1.643c0-0.936,0.755-1.703,2.003-1.703c0.587,0,1.104,0.168,1.427,0.359l-0.264,0.768
			c-0.228-0.144-0.647-0.336-1.187-0.336c-0.624,0-0.972,0.36-0.972,0.792c0,0.479,0.348,0.695,1.104,0.983
			c1.007,0.384,1.523,0.888,1.523,1.751c0,1.02-0.792,1.739-2.171,1.739c-0.635,0-1.223-0.156-1.631-0.396L154.385,131.589z"/>
	</g>
	
		<line fill="#FFFFFF" stroke="#000000" stroke-width="2.045" stroke-miterlimit="10" x1="120.696" y1="63.5" x2="120.696" y2="86.5"/>
	
		<line fill="#FFFFFF" stroke="#000000" stroke-width="2.045" stroke-miterlimit="10" x1="128.446" y1="63.5" x2="128.446" y2="86.5"/>
	
		<line fill="#FFFFFF" stroke="#000000" stroke-width="2.045" stroke-miterlimit="10" x1="137.196" y1="63.5" x2="137.196" y2="86.5"/>
	
		<line fill="#FFFFFF" stroke="#000000" stroke-width="2.045" stroke-miterlimit="10" x1="168.946" y1="63.5" x2="168.946" y2="86.5"/>
	
		<line fill="#FFFFFF" stroke="#000000" stroke-width="2.045" stroke-miterlimit="10" x1="199.946" y1="63.5" x2="199.946" y2="86.5"/>
	
		<line fill="#FFFFFF" stroke="#000000" stroke-width="2.045" stroke-miterlimit="10" x1="234.446" y1="63.5" x2="234.446" y2="86.5"/>
	
		<line fill="#FFFFFF" stroke="#000000" stroke-width="2.045" stroke-miterlimit="10" x1="244.446" y1="63.5" x2="244.446" y2="86.5"/>
	
		<line fill="#FFFFFF" stroke="#000000" stroke-width="2.045" stroke-miterlimit="10" x1="252.946" y1="63.5" x2="252.946" y2="86.5"/>
	
		<line fill="#FFFFFF" stroke="#000000" stroke-width="2.045" stroke-miterlimit="10" x1="268.696" y1="63.5" x2="268.696" y2="86.5"/>
	
		<line fill="#FFFFFF" stroke="#000000" stroke-width="2.045" stroke-miterlimit="10" x1="285.946" y1="63.5" x2="285.946" y2="86.5"/>
	
		<line fill="#FFFFFF" stroke="#000000" stroke-width="2.045" stroke-miterlimit="10" x1="304.446" y1="63.5" x2="304.446" y2="86.5"/>
	
		<line fill="#FFFFFF" stroke="#000000" stroke-width="2.045" stroke-miterlimit="10" x1="321.946" y1="63.5" x2="321.946" y2="86.5"/>
	
		<line fill="#FFFFFF" stroke="#000000" stroke-width="2.045" stroke-miterlimit="10" x1="381.946" y1="63.5" x2="381.946" y2="86.5"/>
	
		<line fill="#FFFFFF" stroke="#000000" stroke-width="2.045" stroke-miterlimit="10" x1="411.946" y1="63.5" x2="411.946" y2="86.5"/>
	
		<line fill="#FFFFFF" stroke="#000000" stroke-width="2.045" stroke-miterlimit="10" x1="483.946" y1="63.5" x2="483.946" y2="86.5"/>
	<g>
		<path d="M80.256,57.236c-0.384,0.191-1.151,0.384-2.135,0.384c-2.279,0-3.994-1.439-3.994-4.09c0-2.53,1.715-4.246,4.222-4.246
			c1.008,0,1.643,0.216,1.919,0.36l-0.252,0.852c-0.396-0.192-0.959-0.336-1.631-0.336c-1.895,0-3.154,1.211-3.154,3.334
			c0,1.979,1.139,3.25,3.106,3.25c0.636,0,1.283-0.132,1.703-0.336L80.256,57.236z"/>
	</g>
	<g>
		<path d="M119.607,57.5v-8.084h1.139l2.591,4.09c0.6,0.948,1.067,1.8,1.451,2.627l0.024-0.012c-0.096-1.08-0.12-2.063-0.12-3.322
			v-3.383h0.983V57.5h-1.055l-2.566-4.102c-0.564-0.899-1.104-1.823-1.511-2.698l-0.036,0.012c0.06,1.02,0.084,1.991,0.084,3.334
			V57.5H119.607z"/>
	</g>
	<g>
		<path d="M136.419,53.95c-0.06-1.128-0.132-2.482-0.12-3.49h-0.036c-0.276,0.947-0.612,1.955-1.02,3.07l-1.427,3.922h-0.792
			l-1.307-3.85c-0.384-1.14-0.708-2.184-0.936-3.143h-0.024c-0.024,1.008-0.084,2.362-0.156,3.574l-0.216,3.466h-0.995l0.563-8.084
			h1.332l1.379,3.91c0.336,0.995,0.612,1.883,0.815,2.723h0.036c0.204-0.815,0.492-1.703,0.852-2.723l1.439-3.91h1.331l0.504,8.084
			h-1.02L136.419,53.95z"/>
	</g>
	<g>
		<path d="M148.607,49.416h1.043v3.898h0.036c0.216-0.312,0.432-0.6,0.636-0.863l2.471-3.035h1.295l-2.926,3.431l3.154,4.653h-1.235
			l-2.663-3.97l-0.768,0.888V57.5h-1.043V49.416z"/>
	</g>
	<g>
		<path d="M181.107,49.416h4.354v0.876h-3.31v2.687h3.058v0.863h-3.058V57.5h-1.043V49.416z"/>
	</g>
	<g>
		<path d="M217.293,53.71h-3.142v2.914h3.502V57.5h-4.545v-8.084h4.366v0.876h-3.322v2.555h3.142V53.71z"/>
	</g>
	<g>
		<path d="M244.016,53.374c0,2.782-1.691,4.258-3.754,4.258c-2.135,0-3.634-1.655-3.634-4.102c0-2.566,1.595-4.246,3.754-4.246
			C242.588,49.284,244.016,50.976,244.016,53.374z M237.743,53.506c0,1.728,0.935,3.274,2.579,3.274c1.655,0,2.59-1.523,2.59-3.358
			c0-1.606-0.839-3.286-2.579-3.286C238.606,50.136,237.743,51.731,237.743,53.506z"/>
	</g>
	<g>
		<path d="M245.107,49.513c0.503-0.084,1.163-0.156,2.003-0.156c1.031,0,1.787,0.24,2.267,0.672c0.444,0.384,0.708,0.972,0.708,1.69
			c0,0.732-0.216,1.308-0.624,1.728c-0.552,0.588-1.451,0.888-2.471,0.888c-0.312,0-0.6-0.013-0.839-0.072V57.5h-1.043V49.513z
			 M246.151,53.41c0.228,0.061,0.516,0.084,0.863,0.084c1.259,0,2.027-0.611,2.027-1.727c0-1.067-0.755-1.584-1.907-1.584
			c-0.456,0-0.804,0.036-0.983,0.084V53.41z"/>
	</g>
	<g>
		<path d="M261.151,49.416V57.5h-1.043v-8.084H261.151z"/>
	</g>
	<g>
		<path d="M280.76,57.141c-0.468,0.168-1.391,0.443-2.482,0.443c-1.223,0-2.231-0.312-3.022-1.067
			c-0.696-0.672-1.127-1.751-1.127-3.011c0.012-2.41,1.667-4.174,4.378-4.174c0.935,0,1.667,0.204,2.015,0.372l-0.252,0.852
			c-0.432-0.191-0.971-0.348-1.787-0.348c-1.967,0-3.25,1.224-3.25,3.25c0,2.051,1.235,3.263,3.118,3.263
			c0.684,0,1.151-0.097,1.392-0.216v-2.411h-1.644v-0.84h2.663V57.141z"/>
	</g>
	<g>
		<path d="M292.607,49.416h1.043v7.208h3.454V57.5h-4.498V49.416z"/>
	</g>
	<g>
		<path d="M311.762,49.416h1.044v5.409c0,2.147-1.056,2.807-2.446,2.807c-0.384,0-0.852-0.084-1.115-0.191l0.156-0.852
			c0.215,0.084,0.527,0.155,0.875,0.155c0.936,0,1.486-0.42,1.486-2.003V49.416z"/>
	</g>
	<g>
		<path d="M350.15,49.416v3.383h3.91v-3.383h1.056V57.5h-1.056v-3.79h-3.91v3.79h-1.043v-8.084H350.15z"/>
	</g>
	<g>
		<path d="M393.107,49.524c0.636-0.096,1.391-0.168,2.219-0.168c1.499,0,2.566,0.348,3.273,1.008
			c0.721,0.659,1.141,1.595,1.141,2.902c0,1.319-0.408,2.398-1.164,3.142c-0.756,0.756-2.003,1.164-3.574,1.164
			c-0.743,0-1.367-0.036-1.895-0.097V49.524z M394.15,56.673c0.264,0.048,0.648,0.06,1.056,0.06c2.231,0,3.442-1.247,3.442-3.43
			c0.012-1.907-1.067-3.119-3.274-3.119c-0.54,0-0.947,0.049-1.224,0.108V56.673z"/>
	</g>
	<g>
		<path d="M445.914,54.957l-0.839,2.543h-1.079l2.746-8.084h1.26l2.758,8.084h-1.115l-0.863-2.543H445.914z M448.564,54.142
			l-0.791-2.326c-0.18-0.528-0.3-1.008-0.42-1.476h-0.023c-0.12,0.479-0.252,0.972-0.408,1.463l-0.791,2.339H448.564z"/>
	</g>
	<g>
		<path d="M525.107,49.524c0.455-0.096,1.176-0.168,1.906-0.168c1.044,0,1.716,0.18,2.219,0.588c0.42,0.312,0.672,0.791,0.672,1.427
			c0,0.78-0.516,1.464-1.367,1.775v0.023c0.768,0.192,1.668,0.828,1.668,2.027c0,0.695-0.276,1.224-0.684,1.619
			c-0.564,0.516-1.476,0.756-2.795,0.756c-0.72,0-1.271-0.048-1.619-0.097V49.524z M526.15,52.835h0.947
			c1.104,0,1.752-0.576,1.752-1.355c0-0.947-0.721-1.319-1.775-1.319c-0.48,0-0.756,0.036-0.924,0.072V52.835z M526.15,56.708
			c0.204,0.036,0.504,0.049,0.876,0.049c1.079,0,2.075-0.396,2.075-1.571c0-1.104-0.947-1.56-2.088-1.56h-0.863V56.708z"/>
	</g>
	<g>
		<path d="M445.107,14.524c0.527-0.108,1.283-0.168,2.002-0.168c1.115,0,1.836,0.204,2.34,0.659c0.408,0.36,0.635,0.912,0.635,1.535
			c0,1.068-0.672,1.775-1.523,2.063v0.036c0.625,0.216,0.996,0.791,1.188,1.631c0.264,1.127,0.457,1.907,0.625,2.219h-1.08
			c-0.133-0.228-0.313-0.924-0.539-1.931c-0.24-1.115-0.672-1.535-1.619-1.571h-0.984V22.5h-1.043V14.524z M446.15,18.206h1.068
			c1.115,0,1.822-0.611,1.822-1.535c0-1.043-0.756-1.499-1.859-1.511c-0.504,0-0.863,0.048-1.031,0.096V18.206z"/>
		<path d="M452.822,15.064c0.012,0.359-0.252,0.647-0.672,0.647c-0.371,0-0.635-0.288-0.635-0.647c0-0.372,0.275-0.66,0.66-0.66
			C452.57,14.404,452.822,14.692,452.822,15.064z M451.648,22.5v-5.805h1.055V22.5H451.648z"/>
		<path d="M459.457,16.695c-0.025,0.42-0.049,0.888-0.049,1.595v3.37c0,1.332-0.264,2.147-0.828,2.65
			c-0.563,0.528-1.379,0.696-2.109,0.696c-0.697,0-1.465-0.168-1.932-0.479l0.264-0.804c0.385,0.239,0.984,0.455,1.703,0.455
			c1.08,0,1.871-0.563,1.871-2.026v-0.647h-0.023c-0.324,0.539-0.947,0.971-1.848,0.971c-1.439,0-2.471-1.223-2.471-2.83
			c0-1.967,1.283-3.082,2.615-3.082c1.008,0,1.559,0.527,1.811,1.007h0.023l0.049-0.875H459.457z M458.365,18.986
			c0-0.181-0.012-0.336-0.061-0.48c-0.191-0.611-0.707-1.115-1.475-1.115c-1.008,0-1.727,0.852-1.727,2.195
			c0,1.139,0.574,2.087,1.715,2.087c0.646,0,1.234-0.408,1.463-1.08c0.061-0.18,0.084-0.384,0.084-0.563V18.986z"/>
		<path d="M461.164,13.984h1.055v3.622h0.023c0.168-0.3,0.432-0.563,0.756-0.743c0.313-0.18,0.684-0.3,1.08-0.3
			c0.779,0,2.025,0.479,2.025,2.482V22.5h-1.055v-3.334c0-0.936-0.348-1.728-1.344-1.728c-0.684,0-1.223,0.48-1.414,1.056
			c-0.061,0.144-0.072,0.3-0.072,0.504V22.5h-1.055V13.984z"/>
		<path d="M469.047,15.028v1.667h1.512v0.804h-1.512v3.13c0,0.72,0.203,1.128,0.791,1.128c0.275,0,0.48-0.036,0.611-0.072
			l0.049,0.791c-0.203,0.084-0.527,0.145-0.936,0.145c-0.492,0-0.887-0.156-1.139-0.444c-0.301-0.312-0.408-0.827-0.408-1.511
			v-3.166h-0.9v-0.804h0.9v-1.392L469.047,15.028z"/>
		<path d="M475.563,15.028v1.667h1.512v0.804h-1.512v3.13c0,0.72,0.203,1.128,0.791,1.128c0.275,0,0.48-0.036,0.611-0.072
			l0.049,0.791c-0.203,0.084-0.527,0.145-0.936,0.145c-0.492,0-0.887-0.156-1.139-0.444c-0.301-0.312-0.408-0.827-0.408-1.511
			v-3.166h-0.9v-0.804h0.9v-1.392L475.563,15.028z"/>
		<path d="M478.777,19.789c0.025,1.428,0.936,2.016,1.992,2.016c0.756,0,1.211-0.132,1.607-0.3l0.18,0.755
			c-0.373,0.168-1.008,0.36-1.932,0.36c-1.787,0-2.854-1.176-2.854-2.927s1.031-3.13,2.723-3.13c1.895,0,2.398,1.667,2.398,2.734
			c0,0.216-0.025,0.384-0.037,0.491H478.777z M481.873,19.034c0.012-0.672-0.277-1.716-1.463-1.716
			c-1.068,0-1.535,0.984-1.619,1.716H481.873z"/>
		<path d="M484.203,18.506c0-0.684-0.014-1.271-0.049-1.811h0.924l0.035,1.14h0.049c0.264-0.78,0.898-1.271,1.607-1.271
			c0.119,0,0.203,0.012,0.299,0.036v0.995c-0.107-0.024-0.215-0.036-0.359-0.036c-0.744,0-1.271,0.563-1.416,1.355
			c-0.023,0.144-0.047,0.312-0.047,0.491V22.5h-1.043V18.506z"/>
		<path d="M488.174,18.267c0-0.6-0.012-1.092-0.049-1.571h0.924l0.049,0.936h0.035c0.324-0.552,0.863-1.067,1.824-1.067
			c0.791,0,1.391,0.479,1.643,1.163h0.023c0.18-0.324,0.408-0.575,0.648-0.756c0.348-0.264,0.73-0.407,1.283-0.407
			c0.768,0,1.906,0.504,1.906,2.519V22.5h-1.031v-3.286c0-1.115-0.408-1.787-1.26-1.787c-0.6,0-1.066,0.443-1.246,0.96
			c-0.049,0.144-0.084,0.335-0.084,0.527V22.5h-1.031v-3.479c0-0.923-0.408-1.595-1.213-1.595c-0.658,0-1.139,0.527-1.307,1.056
			c-0.061,0.155-0.084,0.336-0.084,0.516V22.5h-1.031V18.267z"/>
		<path d="M499.357,15.064c0.012,0.359-0.252,0.647-0.672,0.647c-0.371,0-0.637-0.288-0.637-0.647c0-0.372,0.277-0.66,0.66-0.66
			C499.105,14.404,499.357,14.692,499.357,15.064z M498.182,22.5v-5.805h1.055V22.5H498.182z"/>
		<path d="M500.99,18.267c0-0.6-0.014-1.092-0.049-1.571h0.936l0.061,0.959h0.023c0.287-0.552,0.959-1.091,1.918-1.091
			c0.805,0,2.051,0.479,2.051,2.471V22.5h-1.055v-3.346c0-0.936-0.348-1.716-1.344-1.716c-0.695,0-1.234,0.492-1.414,1.08
			c-0.049,0.132-0.072,0.312-0.072,0.491v3.49h-1.055V18.267z"/>
		<path d="M510.863,22.5l-0.084-0.731h-0.035c-0.324,0.456-0.947,0.863-1.775,0.863c-1.176,0-1.775-0.827-1.775-1.667
			c0-1.403,1.248-2.171,3.49-2.159v-0.119c0-0.48-0.131-1.344-1.318-1.344c-0.541,0-1.104,0.168-1.512,0.432l-0.24-0.695
			c0.48-0.312,1.176-0.516,1.906-0.516c1.775,0,2.207,1.211,2.207,2.374v2.171c0,0.504,0.025,0.996,0.096,1.392H510.863z
			 M510.707,19.538c-1.15-0.024-2.457,0.18-2.457,1.307c0,0.684,0.455,1.008,0.994,1.008c0.756,0,1.236-0.479,1.404-0.972
			c0.035-0.107,0.059-0.228,0.059-0.336V19.538z"/>
		<path d="M513.434,13.984h1.055V22.5h-1.055V13.984z"/>
		<path d="M518.811,18.506c0-0.684-0.014-1.271-0.049-1.811h0.924l0.035,1.14h0.049c0.264-0.78,0.898-1.271,1.607-1.271
			c0.119,0,0.203,0.012,0.299,0.036v0.995c-0.107-0.024-0.215-0.036-0.359-0.036c-0.744,0-1.271,0.563-1.416,1.355
			c-0.023,0.144-0.047,0.312-0.047,0.491V22.5h-1.043V18.506z"/>
		<path d="M523.201,19.789c0.023,1.428,0.936,2.016,1.99,2.016c0.756,0,1.211-0.132,1.607-0.3l0.18,0.755
			c-0.371,0.168-1.008,0.36-1.93,0.36c-1.787,0-2.855-1.176-2.855-2.927s1.031-3.13,2.723-3.13c1.895,0,2.398,1.667,2.398,2.734
			c0,0.216-0.023,0.384-0.035,0.491H523.201z M526.295,19.034c0.012-0.672-0.275-1.716-1.463-1.716
			c-1.066,0-1.535,0.984-1.619,1.716H526.295z"/>
		<path d="M533.627,16.695c-0.025,0.42-0.049,0.888-0.049,1.595v3.37c0,1.332-0.264,2.147-0.828,2.65
			c-0.563,0.528-1.379,0.696-2.109,0.696c-0.697,0-1.465-0.168-1.932-0.479l0.264-0.804c0.385,0.239,0.984,0.455,1.703,0.455
			c1.08,0,1.871-0.563,1.871-2.026v-0.647h-0.023c-0.324,0.539-0.947,0.971-1.848,0.971c-1.439,0-2.471-1.223-2.471-2.83
			c0-1.967,1.283-3.082,2.615-3.082c1.008,0,1.559,0.527,1.811,1.007h0.023l0.049-0.875H533.627z M532.535,18.986
			c0-0.181-0.012-0.336-0.061-0.48c-0.191-0.611-0.707-1.115-1.475-1.115c-1.008,0-1.727,0.852-1.727,2.195
			c0,1.139,0.574,2.087,1.715,2.087c0.646,0,1.234-0.408,1.463-1.08c0.061-0.18,0.084-0.384,0.084-0.563V18.986z"/>
		<path d="M536.438,15.064c0.012,0.359-0.252,0.647-0.672,0.647c-0.371,0-0.637-0.288-0.637-0.647c0-0.372,0.277-0.66,0.66-0.66
			C536.186,14.404,536.438,14.692,536.438,15.064z M535.262,22.5v-5.805h1.055V22.5H535.262z"/>
		<path d="M543.322,19.55c0,2.146-1.486,3.082-2.891,3.082c-1.57,0-2.781-1.151-2.781-2.986c0-1.942,1.27-3.082,2.877-3.082
			C542.195,16.563,543.322,17.774,543.322,19.55z M538.717,19.609c0,1.271,0.732,2.231,1.764,2.231c1.008,0,1.762-0.948,1.762-2.255
			c0-0.983-0.49-2.231-1.738-2.231S538.717,18.506,538.717,19.609z"/>
		<path d="M544.658,18.267c0-0.6-0.014-1.092-0.049-1.571h0.936l0.061,0.959h0.023c0.287-0.552,0.959-1.091,1.918-1.091
			c0.805,0,2.051,0.479,2.051,2.471V22.5h-1.055v-3.346c0-0.936-0.348-1.716-1.344-1.716c-0.695,0-1.234,0.492-1.414,1.08
			c-0.049,0.132-0.072,0.312-0.072,0.491v3.49h-1.055V18.267z"/>
	</g>
	<g>
		<path d="M50.607,14.416h1.044v7.208h3.454V22.5h-4.498V14.416z"/>
		<path d="M56.655,19.789c0.024,1.428,0.936,2.016,1.991,2.016c0.756,0,1.211-0.132,1.607-0.3l0.18,0.755
			c-0.372,0.168-1.008,0.36-1.931,0.36c-1.787,0-2.854-1.176-2.854-2.927s1.031-3.13,2.723-3.13c1.895,0,2.398,1.667,2.398,2.734
			c0,0.216-0.024,0.384-0.036,0.491H56.655z M59.75,19.034c0.012-0.672-0.276-1.716-1.463-1.716c-1.067,0-1.535,0.984-1.619,1.716
			H59.75z"/>
		<path d="M62.187,22.5v-5.001h-0.815v-0.804h0.815v-0.276c0-0.815,0.18-1.559,0.672-2.026c0.396-0.384,0.923-0.54,1.415-0.54
			c0.372,0,0.695,0.084,0.899,0.168l-0.144,0.815c-0.156-0.071-0.372-0.132-0.672-0.132c-0.899,0-1.127,0.792-1.127,1.68v0.312
			h1.402v0.804h-1.402V22.5H62.187z"/>
		<path d="M66.986,15.028v1.667h1.512v0.804h-1.512v3.13c0,0.72,0.204,1.128,0.792,1.128c0.275,0,0.479-0.036,0.611-0.072
			l0.048,0.791c-0.203,0.084-0.527,0.145-0.936,0.145c-0.491,0-0.887-0.156-1.139-0.444c-0.3-0.312-0.408-0.827-0.408-1.511v-3.166
			h-0.899v-0.804h0.899v-1.392L66.986,15.028z"/>
		<path d="M73.501,15.028v1.667h1.512v0.804h-1.512v3.13c0,0.72,0.204,1.128,0.792,1.128c0.275,0,0.479-0.036,0.611-0.072
			l0.048,0.791c-0.203,0.084-0.527,0.145-0.936,0.145c-0.491,0-0.887-0.156-1.139-0.444c-0.3-0.312-0.408-0.827-0.408-1.511v-3.166
			h-0.899v-0.804h0.899v-1.392L73.501,15.028z"/>
		<path d="M76.717,19.789c0.024,1.428,0.936,2.016,1.991,2.016c0.756,0,1.211-0.132,1.607-0.3l0.18,0.755
			c-0.372,0.168-1.008,0.36-1.931,0.36c-1.787,0-2.854-1.176-2.854-2.927s1.031-3.13,2.723-3.13c1.895,0,2.398,1.667,2.398,2.734
			c0,0.216-0.024,0.384-0.036,0.491H76.717z M79.812,19.034c0.012-0.672-0.276-1.716-1.463-1.716c-1.067,0-1.535,0.984-1.619,1.716
			H79.812z"/>
		<path d="M82.142,18.506c0-0.684-0.013-1.271-0.049-1.811h0.924l0.036,1.14h0.048c0.264-0.78,0.899-1.271,1.607-1.271
			c0.12,0,0.204,0.012,0.3,0.036v0.995c-0.108-0.024-0.216-0.036-0.36-0.036c-0.743,0-1.271,0.563-1.415,1.355
			c-0.023,0.144-0.048,0.312-0.048,0.491V22.5h-1.043V18.506z"/>
		<path d="M86.115,18.267c0-0.6-0.013-1.092-0.049-1.571h0.924l0.048,0.936h0.036c0.324-0.552,0.863-1.067,1.823-1.067
			c0.791,0,1.391,0.479,1.643,1.163h0.024c0.18-0.324,0.407-0.575,0.647-0.756c0.348-0.264,0.731-0.407,1.283-0.407
			c0.768,0,1.907,0.504,1.907,2.519V22.5h-1.031v-3.286c0-1.115-0.408-1.787-1.26-1.787c-0.6,0-1.067,0.443-1.247,0.96
			c-0.048,0.144-0.084,0.335-0.084,0.527V22.5h-1.031v-3.479c0-0.923-0.408-1.595-1.212-1.595c-0.659,0-1.139,0.527-1.307,1.056
			c-0.061,0.155-0.084,0.336-0.084,0.516V22.5h-1.031V18.267z"/>
		<path d="M97.297,15.064c0.012,0.359-0.252,0.647-0.672,0.647c-0.371,0-0.636-0.288-0.636-0.647c0-0.372,0.276-0.66,0.66-0.66
			C97.045,14.404,97.297,14.692,97.297,15.064z M96.123,22.5v-5.805h1.055V22.5H96.123z"/>
		<path d="M98.929,18.267c0-0.6-0.013-1.092-0.049-1.571h0.936l0.061,0.959H99.9c0.288-0.552,0.96-1.091,1.919-1.091
			c0.804,0,2.051,0.479,2.051,2.471V22.5h-1.055v-3.346c0-0.936-0.348-1.716-1.344-1.716c-0.695,0-1.235,0.492-1.415,1.08
			c-0.048,0.132-0.072,0.312-0.072,0.491v3.49h-1.055V18.267z"/>
		<path d="M108.803,22.5l-0.084-0.731h-0.036c-0.323,0.456-0.947,0.863-1.775,0.863c-1.175,0-1.774-0.827-1.774-1.667
			c0-1.403,1.247-2.171,3.49-2.159v-0.119c0-0.48-0.132-1.344-1.319-1.344c-0.54,0-1.104,0.168-1.512,0.432l-0.239-0.695
			c0.479-0.312,1.175-0.516,1.906-0.516c1.775,0,2.207,1.211,2.207,2.374v2.171c0,0.504,0.024,0.996,0.096,1.392H108.803z
			 M108.647,19.538c-1.151-0.024-2.458,0.18-2.458,1.307c0,0.684,0.455,1.008,0.995,1.008c0.756,0,1.235-0.479,1.403-0.972
			c0.036-0.107,0.06-0.228,0.06-0.336V19.538z"/>
		<path d="M111.375,13.984h1.055V22.5h-1.055V13.984z"/>
		<path d="M116.75,18.506c0-0.684-0.013-1.271-0.049-1.811h0.924l0.036,1.14h0.048c0.264-0.78,0.899-1.271,1.607-1.271
			c0.12,0,0.204,0.012,0.3,0.036v0.995c-0.108-0.024-0.216-0.036-0.36-0.036c-0.743,0-1.271,0.563-1.415,1.355
			c-0.023,0.144-0.048,0.312-0.048,0.491V22.5h-1.043V18.506z"/>
		<path d="M121.141,19.789c0.024,1.428,0.936,2.016,1.991,2.016c0.756,0,1.211-0.132,1.607-0.3l0.18,0.755
			c-0.372,0.168-1.008,0.36-1.931,0.36c-1.787,0-2.854-1.176-2.854-2.927s1.031-3.13,2.723-3.13c1.895,0,2.398,1.667,2.398,2.734
			c0,0.216-0.024,0.384-0.036,0.491H121.141z M124.236,19.034c0.012-0.672-0.276-1.716-1.463-1.716
			c-1.067,0-1.535,0.984-1.619,1.716H124.236z"/>
		<path d="M131.567,16.695c-0.024,0.42-0.048,0.888-0.048,1.595v3.37c0,1.332-0.265,2.147-0.828,2.65
			c-0.563,0.528-1.379,0.696-2.11,0.696c-0.696,0-1.464-0.168-1.932-0.479l0.265-0.804c0.384,0.239,0.983,0.455,1.703,0.455
			c1.079,0,1.87-0.563,1.87-2.026v-0.647h-0.023c-0.324,0.539-0.947,0.971-1.847,0.971c-1.439,0-2.471-1.223-2.471-2.83
			c0-1.967,1.283-3.082,2.614-3.082c1.008,0,1.56,0.527,1.811,1.007h0.024l0.048-0.875H131.567z M130.475,18.986
			c0-0.181-0.012-0.336-0.06-0.48c-0.192-0.611-0.708-1.115-1.476-1.115c-1.007,0-1.727,0.852-1.727,2.195
			c0,1.139,0.575,2.087,1.715,2.087c0.647,0,1.235-0.408,1.463-1.08c0.061-0.18,0.084-0.384,0.084-0.563V18.986z"/>
		<path d="M134.376,15.064c0.012,0.359-0.252,0.647-0.672,0.647c-0.371,0-0.636-0.288-0.636-0.647c0-0.372,0.276-0.66,0.66-0.66
			C134.125,14.404,134.376,14.692,134.376,15.064z M133.202,22.5v-5.805h1.055V22.5H133.202z"/>
		<path d="M141.262,19.55c0,2.146-1.487,3.082-2.891,3.082c-1.571,0-2.782-1.151-2.782-2.986c0-1.942,1.271-3.082,2.878-3.082
			C140.134,16.563,141.262,17.774,141.262,19.55z M136.657,19.609c0,1.271,0.731,2.231,1.763,2.231c1.008,0,1.763-0.948,1.763-2.255
			c0-0.983-0.491-2.231-1.738-2.231C137.196,17.354,136.657,18.506,136.657,19.609z"/>
		<path d="M142.597,18.267c0-0.6-0.013-1.092-0.049-1.571h0.936l0.061,0.959h0.023c0.288-0.552,0.96-1.091,1.919-1.091
			c0.804,0,2.051,0.479,2.051,2.471V22.5h-1.055v-3.346c0-0.936-0.348-1.716-1.344-1.716c-0.695,0-1.235,0.492-1.415,1.08
			c-0.048,0.132-0.072,0.312-0.072,0.491v3.49h-1.055V18.267z"/>
	</g>
	<g>
		<path d="M255.256,21.736c-0.384,0.191-1.151,0.384-2.135,0.384c-2.279,0-3.994-1.439-3.994-4.09c0-2.53,1.715-4.246,4.222-4.246
			c1.008,0,1.644,0.216,1.919,0.36l-0.252,0.852c-0.396-0.192-0.959-0.336-1.631-0.336c-1.895,0-3.154,1.211-3.154,3.334
			c0,1.979,1.14,3.25,3.106,3.25c0.636,0,1.283-0.132,1.703-0.336L255.256,21.736z"/>
		<path d="M256.987,19.289c0.024,1.428,0.936,2.016,1.991,2.016c0.756,0,1.211-0.132,1.607-0.3l0.18,0.755
			c-0.372,0.168-1.008,0.36-1.931,0.36c-1.787,0-2.854-1.176-2.854-2.927s1.031-3.13,2.723-3.13c1.895,0,2.398,1.667,2.398,2.734
			c0,0.216-0.024,0.384-0.036,0.491H256.987z M260.082,18.534c0.012-0.672-0.276-1.716-1.463-1.716
			c-1.067,0-1.535,0.984-1.619,1.716H260.082z"/>
		<path d="M262.412,17.767c0-0.6-0.013-1.092-0.049-1.571h0.936l0.061,0.959h0.023c0.288-0.552,0.96-1.091,1.919-1.091
			c0.804,0,2.051,0.479,2.051,2.471V22h-1.055v-3.346c0-0.936-0.348-1.716-1.344-1.716c-0.695,0-1.235,0.492-1.415,1.08
			c-0.048,0.132-0.072,0.312-0.072,0.491V22h-1.055V17.767z"/>
		<path d="M270.294,14.528v1.667h1.512v0.804h-1.512v3.13c0,0.72,0.204,1.128,0.792,1.128c0.275,0,0.479-0.036,0.611-0.072
			l0.048,0.791c-0.203,0.084-0.527,0.145-0.936,0.145c-0.491,0-0.887-0.156-1.139-0.444c-0.3-0.312-0.408-0.827-0.408-1.511v-3.166
			h-0.899v-0.804h0.899v-1.392L270.294,14.528z"/>
		<path d="M272.996,18.006c0-0.684-0.013-1.271-0.049-1.811h0.924l0.036,1.14h0.048c0.264-0.78,0.899-1.271,1.607-1.271
			c0.12,0,0.204,0.012,0.3,0.036v0.995c-0.108-0.024-0.216-0.036-0.36-0.036c-0.743,0-1.271,0.563-1.415,1.355
			c-0.023,0.144-0.048,0.312-0.048,0.491V22h-1.043V18.006z"/>
		<path d="M280.074,22l-0.084-0.731h-0.036c-0.324,0.456-0.947,0.863-1.775,0.863c-1.175,0-1.774-0.827-1.774-1.667
			c0-1.403,1.247-2.171,3.49-2.159v-0.119c0-0.48-0.132-1.344-1.319-1.344c-0.54,0-1.104,0.168-1.512,0.432l-0.239-0.695
			c0.479-0.312,1.175-0.516,1.906-0.516c1.775,0,2.207,1.211,2.207,2.374v2.171c0,0.504,0.024,0.996,0.096,1.392H280.074z
			 M279.917,19.038c-1.151-0.024-2.458,0.18-2.458,1.307c0,0.684,0.455,1.008,0.995,1.008c0.756,0,1.235-0.479,1.403-0.972
			c0.036-0.107,0.06-0.228,0.06-0.336V19.038z"/>
		<path d="M282.644,13.484h1.055V22h-1.055V13.484z"/>
		<path d="M292.158,21.784c-0.276,0.144-0.888,0.336-1.668,0.336c-1.751,0-2.89-1.188-2.89-2.963c0-1.787,1.223-3.082,3.118-3.082
			c0.623,0,1.175,0.156,1.463,0.3l-0.239,0.815c-0.252-0.144-0.648-0.275-1.224-0.275c-1.331,0-2.051,0.983-2.051,2.194
			c0,1.344,0.863,2.171,2.015,2.171c0.6,0,0.995-0.156,1.295-0.288L292.158,21.784z"/>
		<path d="M298.577,19.05c0,2.146-1.487,3.082-2.891,3.082c-1.571,0-2.782-1.151-2.782-2.986c0-1.942,1.271-3.082,2.878-3.082
			C297.449,16.063,298.577,17.274,298.577,19.05z M293.971,19.109c0,1.271,0.731,2.231,1.763,2.231c1.008,0,1.763-0.948,1.763-2.255
			c0-0.983-0.491-2.231-1.738-2.231C294.51,16.854,293.971,18.006,293.971,19.109z"/>
		<path d="M299.912,17.767c0-0.6-0.014-1.092-0.049-1.571h0.936l0.061,0.959h0.023c0.287-0.552,0.959-1.091,1.918-1.091
			c0.805,0,2.051,0.479,2.051,2.471V22h-1.055v-3.346c0-0.936-0.348-1.716-1.344-1.716c-0.695,0-1.234,0.492-1.414,1.08
			c-0.049,0.132-0.072,0.312-0.072,0.491V22h-1.055V17.767z"/>
		<path d="M306.428,20.921c0.311,0.203,0.863,0.42,1.391,0.42c0.768,0,1.127-0.384,1.127-0.864c0-0.504-0.299-0.779-1.078-1.067
			c-1.045-0.371-1.535-0.947-1.535-1.643c0-0.936,0.756-1.703,2.002-1.703c0.588,0,1.104,0.168,1.428,0.359l-0.264,0.768
			c-0.229-0.144-0.648-0.336-1.188-0.336c-0.623,0-0.971,0.36-0.971,0.792c0,0.479,0.348,0.695,1.102,0.983
			c1.008,0.384,1.523,0.888,1.523,1.751c0,1.02-0.791,1.739-2.17,1.739c-0.637,0-1.223-0.156-1.631-0.396L306.428,20.921z"/>
		<path d="M311.91,19.289c0.025,1.428,0.936,2.016,1.992,2.016c0.756,0,1.211-0.132,1.607-0.3l0.18,0.755
			c-0.373,0.168-1.008,0.36-1.932,0.36c-1.787,0-2.854-1.176-2.854-2.927s1.031-3.13,2.723-3.13c1.895,0,2.398,1.667,2.398,2.734
			c0,0.216-0.025,0.384-0.037,0.491H311.91z M315.006,18.534c0.012-0.672-0.277-1.716-1.463-1.716c-1.068,0-1.535,0.984-1.619,1.716
			H315.006z"/>
		<path d="M317.336,18.006c0-0.684-0.014-1.271-0.049-1.811h0.924l0.035,1.14h0.049c0.264-0.78,0.898-1.271,1.607-1.271
			c0.119,0,0.203,0.012,0.299,0.036v0.995c-0.107-0.024-0.215-0.036-0.359-0.036c-0.744,0-1.271,0.563-1.416,1.355
			c-0.023,0.144-0.047,0.312-0.047,0.491V22h-1.043V18.006z"/>
		<path d="M321.967,16.195l1.139,3.262c0.191,0.528,0.348,1.008,0.469,1.487h0.035c0.133-0.479,0.301-0.959,0.492-1.487l1.127-3.262
			h1.104L324.053,22h-1.008l-2.205-5.805H321.967z"/>
		<path d="M327.797,19.289c0.025,1.428,0.936,2.016,1.992,2.016c0.756,0,1.211-0.132,1.607-0.3l0.18,0.755
			c-0.373,0.168-1.008,0.36-1.932,0.36c-1.787,0-2.854-1.176-2.854-2.927s1.031-3.13,2.723-3.13c1.895,0,2.398,1.667,2.398,2.734
			c0,0.216-0.025,0.384-0.037,0.491H327.797z M330.893,18.534c0.012-0.672-0.277-1.716-1.463-1.716
			c-1.068,0-1.535,0.984-1.619,1.716H330.893z"/>
		<path d="M338.234,13.484v7.017c0,0.516,0.012,1.104,0.049,1.499h-0.947l-0.049-1.008h-0.023c-0.324,0.648-1.031,1.14-1.979,1.14
			c-1.404,0-2.482-1.188-2.482-2.95c-0.014-1.931,1.188-3.118,2.602-3.118c0.889,0,1.488,0.42,1.752,0.888h0.023v-3.467H338.234z
			 M337.18,18.558c0-0.132-0.012-0.312-0.049-0.443c-0.154-0.672-0.73-1.224-1.523-1.224c-1.09,0-1.738,0.96-1.738,2.243
			c0,1.175,0.576,2.146,1.715,2.146c0.709,0,1.355-0.468,1.547-1.259c0.037-0.145,0.049-0.288,0.049-0.456V18.558z"/>
		<path d="M342.533,18.006c0-0.684-0.012-1.271-0.049-1.811h0.924l0.037,1.14h0.047c0.264-0.78,0.9-1.271,1.607-1.271
			c0.121,0,0.203,0.012,0.301,0.036v0.995c-0.109-0.024-0.217-0.036-0.361-0.036c-0.742,0-1.271,0.563-1.414,1.355
			c-0.023,0.144-0.049,0.312-0.049,0.491V22h-1.043V18.006z"/>
		<path d="M346.924,19.289c0.025,1.428,0.936,2.016,1.992,2.016c0.756,0,1.211-0.132,1.607-0.3l0.18,0.755
			c-0.373,0.168-1.008,0.36-1.932,0.36c-1.787,0-2.854-1.176-2.854-2.927s1.031-3.13,2.723-3.13c1.895,0,2.398,1.667,2.398,2.734
			c0,0.216-0.025,0.384-0.037,0.491H346.924z M350.02,18.534c0.012-0.672-0.277-1.716-1.463-1.716c-1.068,0-1.535,0.984-1.619,1.716
			H350.02z"/>
		<path d="M357.35,16.195c-0.023,0.42-0.047,0.888-0.047,1.595v3.37c0,1.332-0.266,2.147-0.828,2.65
			c-0.564,0.528-1.379,0.696-2.111,0.696c-0.695,0-1.463-0.168-1.932-0.479l0.266-0.804c0.383,0.239,0.982,0.455,1.703,0.455
			c1.078,0,1.869-0.563,1.869-2.026v-0.647h-0.023c-0.324,0.539-0.947,0.971-1.846,0.971c-1.439,0-2.471-1.223-2.471-2.83
			c0-1.967,1.283-3.082,2.613-3.082c1.008,0,1.561,0.527,1.811,1.007h0.025l0.047-0.875H357.35z M356.258,18.486
			c0-0.181-0.012-0.336-0.059-0.48c-0.193-0.611-0.709-1.115-1.477-1.115c-1.006,0-1.727,0.852-1.727,2.195
			c0,1.139,0.576,2.087,1.715,2.087c0.648,0,1.236-0.408,1.463-1.08c0.061-0.18,0.084-0.384,0.084-0.563V18.486z"/>
		<path d="M360.16,14.564c0.012,0.359-0.252,0.647-0.672,0.647c-0.371,0-0.635-0.288-0.635-0.647c0-0.372,0.275-0.66,0.66-0.66
			C359.908,13.904,360.16,14.192,360.16,14.564z M358.986,22v-5.805h1.055V22H358.986z"/>
		<path d="M367.047,19.05c0,2.146-1.488,3.082-2.891,3.082c-1.572,0-2.783-1.151-2.783-2.986c0-1.942,1.271-3.082,2.879-3.082
			C365.918,16.063,367.047,17.274,367.047,19.05z M362.441,19.109c0,1.271,0.73,2.231,1.762,2.231c1.008,0,1.764-0.948,1.764-2.255
			c0-0.983-0.492-2.231-1.738-2.231C362.98,16.854,362.441,18.006,362.441,19.109z"/>
		<path d="M368.381,17.767c0-0.6-0.012-1.092-0.049-1.571h0.936l0.061,0.959h0.023c0.289-0.552,0.961-1.091,1.92-1.091
			c0.803,0,2.051,0.479,2.051,2.471V22h-1.055v-3.346c0-0.936-0.35-1.716-1.344-1.716c-0.695,0-1.236,0.492-1.416,1.08
			c-0.047,0.132-0.072,0.312-0.072,0.491V22h-1.055V17.767z"/>
	</g>
	<g>
		<line fill="#FFFFFF" x1="25.696" y1="28.5" x2="176.196" y2="28.5"/>
		<g>
			<line fill="none" stroke="#000000" stroke-miterlimit="10" x1="31.731" y1="28.5" x2="170.161" y2="28.5"/>
			<g>
				<path d="M25.696,28.5c2.84,1.054,6.363,2.852,8.547,4.756l-1.72-4.756l1.72-4.755C32.06,25.649,28.536,27.447,25.696,28.5z"/>
			</g>
			<g>
				<path d="M176.196,28.5c-2.84,1.054-6.363,2.852-8.547,4.756l1.72-4.756l-1.72-4.755C169.833,25.649,173.356,27.447,176.196,28.5
					z"/>
			</g>
		</g>
	</g>
	<g>
		<line fill="#FFFFFF" x1="429.196" y1="28.5" x2="579.696" y2="28.5"/>
		<g>
			<line fill="none" stroke="#000000" stroke-miterlimit="10" x1="435.231" y1="28.5" x2="573.661" y2="28.5"/>
			<g>
				<path d="M429.196,28.5c2.84,1.054,6.363,2.852,8.547,4.756l-1.72-4.756l1.72-4.755C435.56,25.649,432.036,27.447,429.196,28.5z"
					/>
			</g>
			<g>
				<path d="M579.696,28.5c-2.84,1.054-6.363,2.852-8.547,4.756l1.72-4.756l-1.72-4.755C573.333,25.649,576.856,27.447,579.696,28.5
					z"/>
			</g>
		</g>
	</g>
	<g>
		<line fill="#FFFFFF" x1="179.696" y1="28.5" x2="427.696" y2="28.5"/>
		<g>
			<line fill="none" stroke="#000000" stroke-miterlimit="10" x1="185.731" y1="28.5" x2="421.661" y2="28.5"/>
			<g>
				<path d="M179.696,28.5c2.84,1.054,6.363,2.852,8.547,4.756l-1.72-4.756l1.72-4.755C186.06,25.649,182.536,27.447,179.696,28.5z"
					/>
			</g>
			<g>
				<path d="M427.696,28.5c-2.84,1.054-6.363,2.852-8.547,4.756l1.72-4.756l-1.72-4.755C421.333,25.649,424.856,27.447,427.696,28.5
					z"/>
			</g>
		</g>
	</g>
	<g>
	</g>
	<g>
	</g>
	<g>
	</g>
	<g>
	</g>
	<g>
	</g>
	<g>
	</g>
	<g>
	</g>
</g>
</svg>
